<svg width="18.900391" height="21.000000" viewBox="0 0 18.9004 21" fill="none" xmlns="http://www.w3.org/2000/svg" xmlns:xlink="http://www.w3.org/1999/xlink">
	<desc>
			Created with Pixso.
	</desc>
	<defs/>
	<path id="Rectangle 12412" d="M14.17 4.19L18.9 4.19L18.9 18.89C18.9 20.05 17.95 21 16.8 21L2.09 21C0.93 21 0 20.05 0 18.89L0 4.19L14.17 4.19ZM1.57 5.77L1.57 18.89Q1.57 19 1.61 19.1Q1.65 19.19 1.72 19.26Q1.8 19.34 1.89 19.38Q1.99 19.42 2.09 19.42L16.8 19.42Q16.9 19.42 17 19.38Q17.09 19.34 17.17 19.26Q17.24 19.19 17.28 19.1Q17.32 19 17.32 18.89L17.32 5.77L1.57 5.77Z" fill="#404B5A" fill-opacity="1.000000" fill-rule="evenodd"/>
	<path id="Rectangle 12413" d="M4.72 0L14.17 0C15.16 0 16.09 0.46 16.69 1.26L17.71 2.62L18.9 4.19L0 4.19L2.2 1.26C2.8 0.46 3.73 0 4.72 0ZM3.15 2.62L15.75 2.62L15.43 2.2Q15.32 2.05 15.18 1.94Q15.04 1.82 14.87 1.74Q14.71 1.65 14.53 1.61Q14.36 1.57 14.17 1.57L4.72 1.57Q4.53 1.57 4.36 1.61Q4.18 1.65 4.02 1.74Q3.85 1.82 3.71 1.94Q3.57 2.05 3.46 2.2L3.15 2.62Z" fill="#404B5A" fill-opacity="1.000000" fill-rule="evenodd"/>
	<path id="Polygon 3" d="M13.53 13.03L10.38 16.17Q10.2 16.35 9.97 16.45Q9.74 16.54 9.5 16.54Q9.25 16.54 9.02 16.45Q8.79 16.35 8.61 16.17L5.46 13.03L6.53 11.96L9.67 15.11Q9.6 15.04 9.5 15.04Q9.39 15.04 9.32 15.11L12.46 11.96L13.53 13.03ZM5.49 13.03L5.46 13.03C5.17 12.73 5.17 12.26 5.46 11.96C5.76 11.67 6.23 11.67 6.53 11.96L6.53 11.99L5.49 13.03ZM12.46 11.99L12.46 11.96C12.76 11.67 13.23 11.67 13.53 11.96C13.82 12.26 13.82 12.73 13.53 13.03L13.5 13.03L12.46 11.99Z" fill="#5C75CE" fill-opacity="1.000000" fill-rule="evenodd"/>
</svg>
