<svg width="20.000000" height="21.101562" viewBox="0 0 20 21.1016" fill="none" xmlns="http://www.w3.org/2000/svg" xmlns:xlink="http://www.w3.org/1999/xlink">
	<desc>
			Created with Pixso.
	</desc>
	<defs/>
	<path id="Rectangle 12415" d="M16.89 1.4L18.34 2.78C19.15 3.54 19.18 4.8 18.41 5.6L7.47 17.1C7.16 17.42 6.75 17.63 6.31 17.69L2.95 18.19C2.62 18.24 2.33 17.95 2.39 17.62L2.9 14.19C2.96 13.8 3.13 13.43 3.4 13.15L14.04 1.5C14.79 0.67 16.08 0.63 16.89 1.4ZM15.86 2.49L17.31 3.86Q17.39 3.94 17.42 4.02Q17.46 4.11 17.47 4.21Q17.47 4.32 17.43 4.41Q17.4 4.5 17.33 4.57L6.38 16.06Q6.33 16.12 6.26 16.16Q6.18 16.2 6.09 16.21L4.07 16.51L4.39 14.42Q4.41 14.26 4.49 14.18L15.15 2.51Q15.22 2.43 15.3 2.39Q15.39 2.35 15.5 2.35Q15.6 2.35 15.69 2.38Q15.78 2.41 15.86 2.49Z" fill="#404B5A" fill-opacity="1.000000" fill-rule="evenodd"/>
	<rect id="Rectangle 12416" x="15.347656" y="1.601562" width="3.943074" height="5.317321" transform="rotate(43.5749 15.347656 1.601562)" fill="#404B5A" fill-opacity="1.000000"/>
	<rect id="Rectangle 12417" y="19.601562" rx="0.750000" width="20.000000" height="1.500000" fill="#606E80" fill-opacity="1.000000"/>
</svg>
