<svg width="24.000000" height="24.000000" viewBox="0 0 24 24" fill="none" xmlns="http://www.w3.org/2000/svg" xmlns:xlink="http://www.w3.org/1999/xlink">
	<desc>
			Created with Pixso.
	</desc>
	<defs>
		<clipPath id="clip5_68568">
			<rect id="solar:case-round-minimalistic-linear" rx="0.000000" width="23.000000" height="23.000000" transform="translate(0.500000 0.500000)" fill="white" fill-opacity="0"/>
		</clipPath>
	</defs>
	<g clip-path="url(#clip5_68568)">
		<rect id="Rectangle 12394" x="3.750000" y="6.750000" rx="5.000000" width="17.500000" height="13.500000" stroke="#404B5A" stroke-opacity="1.000000" stroke-width="1.500000"/>
		<path id="Vector 19" d="M5 9L7.21 10.38C8.39 11.11 9.71 11.6 11.08 11.79C12.02 11.93 12.97 11.93 13.91 11.79C15.28 11.6 16.6 11.11 17.78 10.38L20 9" stroke="#404B5A" stroke-opacity="1.000000" stroke-width="1.500000"/>
		<rect id="Rectangle 12395" x="9.000000" y="10.000000" rx="0.750000" width="1.500000" height="4.000000" fill="#404B5A" fill-opacity="1.000000"/>
		<path id="Rectangle 12396" d="M14.5 10.75C14.5 10.33 14.83 10 15.25 10C15.66 10 16 10.33 16 10.75L16 13.25C16 13.66 15.66 14 15.25 14C14.83 14 14.5 13.66 14.5 13.25L14.5 10.75Z" fill="#404B5A" fill-opacity="1.000000" fill-rule="nonzero"/>
		<path id="Line 2" d="M10 5C10.22 1.89 14.77 1.89 15 5" stroke="#606E80" stroke-opacity="1.000000" stroke-width="1.500000" stroke-linecap="round"/>
	</g>
</svg>
