<svg width="22.000000" height="19.000000" viewBox="0 0 22 19" fill="none" xmlns="http://www.w3.org/2000/svg" xmlns:xlink="http://www.w3.org/1999/xlink">
	<desc>
			Created with Pixso.
	</desc>
	<defs/>
	<path id="Vector" d="M22 6.13C22 13.06 11.8 18.67 11.37 18.9C11.25 18.96 11.13 19 11 19C10.86 19 10.74 18.96 10.62 18.9C10.19 18.67 0 13.06 0 6.13C0 4.51 0.64 2.94 1.78 1.8C2.92 0.64 4.47 0 6.08 0C8.11 0 9.89 0.87 11 2.36C12.1 0.87 13.88 0 15.91 0C17.52 0 19.07 0.64 20.21 1.8C21.35 2.94 21.99 4.51 22 6.13Z" fill="#5C75CE" fill-opacity="1.000000" fill-rule="evenodd"/>
	<path id="Vector" d="M9.94 1.28C8.89 0.46 7.55 0 6.08 0C4.47 0 2.92 0.64 1.78 1.8C0.64 2.94 0 4.51 0 6.13C0 13.06 10.19 18.67 10.62 18.9C10.74 18.96 10.86 19 11 19C11.13 19 11.25 18.96 11.37 18.9C11.8 18.67 22 13.06 22 6.13C21.99 4.51 21.35 2.94 20.21 1.8C19.07 0.64 17.52 0 15.91 0C14.44 0 13.1 0.46 12.05 1.28C11.66 1.59 11.3 1.95 11 2.36C10.69 1.95 10.33 1.59 9.94 1.28ZM11 17.39Q11.08 17.34 11.19 17.28Q11.77 16.93 12.39 16.53Q14.29 15.28 15.85 13.9Q17.96 12.05 19.13 10.21Q20.5 8.08 20.5 6.13Q20.5 5.66 20.4 5.21Q20.32 4.77 20.14 4.35Q19.96 3.91 19.69 3.52Q19.45 3.16 19.15 2.85Q18.81 2.51 18.41 2.25Q18.06 2.01 17.66 1.85Q17.22 1.66 16.76 1.58Q16.34 1.5 15.91 1.5Q14.92 1.5 14.07 1.83Q13.91 1.9 13.76 1.97Q13.21 2.24 12.77 2.62Q12.46 2.91 12.2 3.26L11 4.87L9.79 3.26Q9.53 2.91 9.22 2.62Q8.78 2.24 8.23 1.97Q8.07 1.89 7.91 1.83Q7.06 1.5 6.09 1.5Q5.64 1.5 5.21 1.58Q4.76 1.67 4.33 1.85Q3.93 2.01 3.58 2.25Q3.18 2.51 2.84 2.85Q2.54 3.16 2.3 3.52Q2.03 3.91 1.85 4.35Q1.67 4.78 1.58 5.23Q1.5 5.67 1.5 6.13Q1.5 8.08 2.86 10.21Q4.03 12.05 6.14 13.9Q7.7 15.28 9.6 16.53Q10.22 16.93 10.8 17.28Q10.91 17.34 11 17.39Z" fill="#5C75CE" fill-opacity="1.000000" fill-rule="evenodd"/>
</svg>
