<svg width="14.000000" height="19.500000" viewBox="0 0 14 19.5" fill="none" xmlns="http://www.w3.org/2000/svg" xmlns:xlink="http://www.w3.org/1999/xlink">
	<desc>
			Created with Pixso.
	</desc>
	<defs/>
	<path id="Ellipse 63" d="M13.83 5.47C13.6 4.44 13.14 3.48 12.49 2.66C11.84 1.83 11.01 1.16 10.06 0.7C9.12 0.24 8.08 0 7.03 0C5.98 -0.01 4.94 0.22 3.99 0.67C3.04 1.12 2.2 1.78 1.54 2.6C0.88 3.42 0.42 4.38 0.18 5.41C-0.29 7.43 0.72 9.42 1.8 11.2L3.5 14L6.57 18.83C6.77 19.14 7.22 19.14 7.42 18.83L10.5 14L12.17 11.27C13.26 9.49 14.28 7.5 13.83 5.47ZM10.45 2.71Q10.92 3.1 11.31 3.59Q11.7 4.08 11.96 4.63Q12.23 5.19 12.36 5.8Q12.58 6.76 12.16 7.98Q11.96 8.54 11.62 9.21Q11.33 9.76 10.89 10.48L9.23 13.19L7 16.7L4.78 13.21L3.08 10.42Q2.64 9.7 2.36 9.15Q2.02 8.49 1.83 7.92Q1.41 6.7 1.64 5.75Q1.78 5.14 2.05 4.58Q2.32 4.03 2.71 3.55Q3.11 3.06 3.59 2.68Q4.07 2.3 4.63 2.03Q5.2 1.76 5.8 1.62Q6.4 1.49 7.02 1.5Q7.65 1.5 8.25 1.64Q8.84 1.78 9.41 2.05Q9.97 2.33 10.45 2.71Z" fill="#404B5A" fill-opacity="1.000000" fill-rule="evenodd"/>
	<circle id="Ellipse 64" cx="7.000000" cy="7.000000" r="2.250000" stroke="#5C75CE" stroke-opacity="1.000000" stroke-width="1.500000"/>
</svg>
