<svg width="22" height="23" viewBox="0 0 22 23" fill="none" xmlns="http://www.w3.org/2000/svg">
<path d="M4.74124 21.0461L4.74123 21.046L4.73666 21.0478L2.73666 21.7978L2.09288 22.0392L3.24402 17.6494C3.35341 17.2323 3.23765 16.8023 2.96774 16.495C1.51585 14.8421 0.737393 12.7966 0.750155 10.6993C0.763406 8.52154 1.6291 6.40734 3.21141 4.73806C4.79535 3.06707 6.99415 1.95253 9.41953 1.61072C11.8451 1.26889 14.3213 1.72497 16.4013 2.88934C18.4804 4.05316 20.0181 5.84207 20.7586 7.92128C21.4983 9.99825 21.4007 12.245 20.4806 14.2651C19.5593 16.2876 17.8672 17.9628 15.6899 18.9744C13.5523 19.9675 11.0956 20.2512 8.74872 19.774L8.59929 20.509L8.74872 19.774C8.52421 19.7284 8.28618 19.743 8.06223 19.8253L4.74124 21.0461Z" stroke="#404B5A" stroke-width="1.5"/>
</svg>
