<svg width="22" height="20" viewBox="0 0 22 20" fill="none" xmlns="http://www.w3.org/2000/svg">
<path d="M11.0192 18.7438L11.0192 18.7438L11.0148 18.7462C11.0099 18.7488 11.0048 18.75 11 18.75C10.9951 18.75 10.9901 18.7488 10.9852 18.7462L10.9808 18.7438C10.7893 18.6416 8.18874 17.2133 5.64739 14.9703C3.06762 12.6934 0.750205 9.75297 0.75 6.63728C0.751711 5.20714 1.31623 3.83724 2.31791 2.82773C3.31939 1.81843 4.67596 1.25172 6.08972 1.25C7.89615 1.25012 9.44226 2.02915 10.3986 3.31275L11 4.12003L11.6014 3.31275C12.5577 2.02915 14.1038 1.25012 15.9103 1.25C17.324 1.25172 18.6806 1.81843 19.6821 2.82773C20.6839 3.83734 21.2484 5.20742 21.25 6.6377C21.2496 9.75324 18.9323 12.6935 16.3526 14.9703C13.8113 17.2133 11.2107 18.6416 11.0192 18.7438Z" stroke="#404B5A" stroke-width="1.5"/>
</svg>
