<svg width="83" height="32" viewBox="0 0 83 32" fill="none" xmlns="http://www.w3.org/2000/svg">
<path d="M25.759 29.3332H6.23511C5.2887 29.3332 4.38106 28.9571 3.71184 28.2878C3.04263 27.6184 2.66667 26.7106 2.66667 25.7639V6.23573C2.66667 5.28912 3.04263 4.38127 3.71184 3.71191C4.38106 3.04255 5.2887 2.6665 6.23511 2.6665H25.759C26.7054 2.6665 27.613 3.04255 28.2823 3.71191C28.9515 4.38127 29.3274 5.28912 29.3274 6.23573V25.7639C29.3274 26.7106 28.9515 27.6184 28.2823 28.2878C27.613 28.9571 26.7054 29.3332 25.759 29.3332ZM6.23511 4.71779C5.83262 4.71779 5.44661 4.87771 5.162 5.16238C4.87739 5.44705 4.7175 5.83315 4.7175 6.23573V25.7639C4.7175 26.1665 4.87739 26.5526 5.162 26.8373C5.44661 27.122 5.83262 27.2819 6.23511 27.2819H25.759C26.1615 27.2819 26.5475 27.122 26.8321 26.8373C27.1167 26.5526 27.2766 26.1665 27.2766 25.7639V6.23573C27.2766 5.83315 27.1167 5.44705 26.8321 5.16238C26.5475 4.87771 26.1615 4.71779 25.759 4.71779H6.23511Z" fill="#5C75CE"/>
<path d="M3.69209 25.3128C3.54438 25.3123 3.39848 25.2804 3.2641 25.2191C3.12971 25.1578 3.00994 25.0685 2.91277 24.9572C2.82531 24.8541 2.75909 24.7348 2.71792 24.606C2.67675 24.4772 2.66145 24.3416 2.67288 24.2069C2.68432 24.0721 2.72227 23.941 2.78456 23.821C2.84684 23.701 2.93224 23.5945 3.03582 23.5077L10.036 17.6C10.5586 17.1587 11.2276 16.9294 11.911 16.9573C12.5943 16.9851 13.2424 17.2681 13.7275 17.7504L17.0498 21.0735C17.1736 21.1794 17.3312 21.2376 17.4942 21.2376C17.6571 21.2376 17.8147 21.1794 17.9385 21.0735L21.1651 18.735C21.6433 18.3669 22.2297 18.1672 22.8331 18.1672C23.4365 18.1672 24.023 18.3669 24.5011 18.735L28.9446 22.2769C29.0505 22.3613 29.1388 22.4657 29.2044 22.5843C29.27 22.7028 29.3116 22.8331 29.3268 22.9677C29.342 23.1023 29.3306 23.2386 29.2932 23.3688C29.2558 23.499 29.1931 23.6205 29.1087 23.7265C29.0243 23.8324 28.9199 23.9207 28.8014 23.9863C28.6829 24.0519 28.5526 24.0935 28.418 24.1087C28.2835 24.124 28.1472 24.1125 28.017 24.0751C27.8869 24.0377 27.7654 23.975 27.6594 23.8906L23.2296 20.335C23.1101 20.243 22.9635 20.1931 22.8126 20.1931C22.6618 20.1931 22.5152 20.243 22.3956 20.335L19.169 22.8376C18.6438 23.232 17.9942 23.4242 17.339 23.379C16.6837 23.3338 16.0667 23.0543 15.6006 22.5914L12.2782 19.2C12.1526 19.0866 11.9894 19.0238 11.8202 19.0238C11.651 19.0238 11.4878 19.0866 11.3622 19.2L4.34835 25.0803C4.16521 25.2352 3.93185 25.3178 3.69209 25.3128ZM20.0987 15.6581C19.3551 15.6581 18.6281 15.4375 18.0098 15.0243C17.3915 14.6111 16.9096 14.0237 16.6251 13.3366C16.3405 12.6494 16.266 11.8932 16.4111 11.1637C16.5562 10.4342 16.9143 9.76414 17.4401 9.2382C17.9659 8.71226 18.6359 8.35409 19.3652 8.20898C20.0945 8.06387 20.8505 8.13835 21.5375 8.42299C22.2246 8.70762 22.8118 9.18964 23.2249 9.80808C23.638 10.4265 23.8586 11.1536 23.8586 11.8974C23.8586 12.8948 23.4624 13.8513 22.7573 14.5566C22.0522 15.2619 21.0959 15.6581 20.0987 15.6581ZM20.0987 10.188C19.7607 10.188 19.4303 10.2883 19.1492 10.4761C18.8682 10.6639 18.6491 10.9309 18.5198 11.2432C18.3904 11.5556 18.3566 11.8993 18.4225 12.2309C18.4885 12.5625 18.6512 12.8671 18.8902 13.1061C19.1293 13.3452 19.4338 13.508 19.7653 13.574C20.0968 13.6399 20.4404 13.6061 20.7527 13.4767C21.065 13.3473 21.3319 13.1282 21.5197 12.8471C21.7075 12.566 21.8077 12.2355 21.8077 11.8974C21.8077 11.444 21.6277 11.0092 21.3072 10.6887C20.9867 10.3681 20.552 10.188 20.0987 10.188Z" fill="#5C75CE"/>
<path d="M40 23.24C39.32 23.24 38.78 23.04 38.38 22.64C37.9933 22.2267 37.8 21.6533 37.8 20.92V8.22L39.64 8V20.88C39.64 21.1733 39.6867 21.3867 39.78 21.52C39.8867 21.6533 40.06 21.72 40.3 21.72C40.5533 21.72 40.78 21.68 40.98 21.6L41.46 22.88C41.02 23.12 40.5333 23.24 40 23.24ZM47.6217 12.22C49.1017 12.22 50.2484 12.7133 51.0617 13.7C51.8884 14.6867 52.3017 16.0267 52.3017 17.72C52.3017 18.8133 52.1151 19.78 51.7417 20.62C51.3684 21.4467 50.8284 22.0933 50.1217 22.56C49.4151 23.0133 48.5751 23.24 47.6017 23.24C46.1217 23.24 44.9684 22.7467 44.1417 21.76C43.3151 20.7733 42.9017 19.4333 42.9017 17.74C42.9017 16.6467 43.0884 15.6867 43.4617 14.86C43.8351 14.02 44.3751 13.3733 45.0817 12.92C45.7884 12.4533 46.6351 12.22 47.6217 12.22ZM47.6217 13.7C45.7951 13.7 44.8817 15.0467 44.8817 17.74C44.8817 20.42 45.7884 21.76 47.6017 21.76C49.4151 21.76 50.3217 20.4133 50.3217 17.72C50.3217 15.04 49.4217 13.7 47.6217 13.7ZM63.8414 12.94C63.4414 13.0733 63.0014 13.16 62.5214 13.2C62.0414 13.24 61.4547 13.26 60.7614 13.26C62.0014 13.82 62.6214 14.7067 62.6214 15.92C62.6214 16.9733 62.2614 17.8333 61.5414 18.5C60.8214 19.1667 59.8414 19.5 58.6014 19.5C58.1214 19.5 57.6747 19.4333 57.2614 19.3C57.1014 19.4067 56.9747 19.5533 56.8814 19.74C56.7881 19.9133 56.7414 20.0933 56.7414 20.28C56.7414 20.8533 57.2014 21.14 58.1214 21.14H59.8014C60.5081 21.14 61.1347 21.2667 61.6814 21.52C62.2281 21.7733 62.6481 22.12 62.9414 22.56C63.2481 23 63.4014 23.5 63.4014 24.06C63.4014 25.0867 62.9814 25.8733 62.1414 26.42C61.3014 26.98 60.0747 27.26 58.4614 27.26C57.3281 27.26 56.4281 27.14 55.7614 26.9C55.1081 26.6733 54.6414 26.3267 54.3614 25.86C54.0814 25.3933 53.9414 24.7933 53.9414 24.06H55.6014C55.6014 24.4867 55.6814 24.82 55.8414 25.06C56.0014 25.3133 56.2881 25.5 56.7014 25.62C57.1147 25.7533 57.7014 25.82 58.4614 25.82C59.5681 25.82 60.3547 25.68 60.8214 25.4C61.3014 25.1333 61.5414 24.7267 61.5414 24.18C61.5414 23.6867 61.3547 23.3133 60.9814 23.06C60.6081 22.8067 60.0881 22.68 59.4214 22.68H57.7614C56.8681 22.68 56.1881 22.4933 55.7214 22.12C55.2681 21.7333 55.0414 21.2533 55.0414 20.68C55.0414 20.3333 55.1414 20 55.3414 19.68C55.5414 19.36 55.8281 19.0733 56.2014 18.82C55.5881 18.5 55.1347 18.1067 54.8414 17.64C54.5614 17.16 54.4214 16.58 54.4214 15.9C54.4214 15.1933 54.5947 14.56 54.9414 14C55.3014 13.44 55.7881 13.0067 56.4014 12.7C57.0281 12.38 57.7214 12.22 58.4814 12.22C59.3081 12.2333 60.0014 12.2067 60.5614 12.14C61.1214 12.06 61.5814 11.96 61.9414 11.84C62.3147 11.7067 62.7681 11.52 63.3014 11.28L63.8414 12.94ZM58.4814 13.54C57.7881 13.54 57.2481 13.76 56.8614 14.2C56.4881 14.6267 56.3014 15.1933 56.3014 15.9C56.3014 16.62 56.4947 17.2 56.8814 17.64C57.2681 18.0667 57.8147 18.28 58.5214 18.28C59.2414 18.28 59.7881 18.0733 60.1614 17.66C60.5481 17.2333 60.7414 16.64 60.7414 15.88C60.7414 14.32 59.9881 13.54 58.4814 13.54ZM69.3795 12.22C70.8595 12.22 72.0062 12.7133 72.8195 13.7C73.6462 14.6867 74.0595 16.0267 74.0595 17.72C74.0595 18.8133 73.8729 19.78 73.4995 20.62C73.1262 21.4467 72.5862 22.0933 71.8795 22.56C71.1729 23.0133 70.3329 23.24 69.3595 23.24C67.8795 23.24 66.7262 22.7467 65.8995 21.76C65.0729 20.7733 64.6595 19.4333 64.6595 17.74C64.6595 16.6467 64.8462 15.6867 65.2195 14.86C65.5929 14.02 66.1329 13.3733 66.8395 12.92C67.5462 12.4533 68.3929 12.22 69.3795 12.22ZM69.3795 13.7C67.5529 13.7 66.6395 15.0467 66.6395 17.74C66.6395 20.42 67.5462 21.76 69.3595 21.76C71.1729 21.76 72.0795 20.4133 72.0795 17.72C72.0795 15.04 71.1795 13.7 69.3795 13.7Z" fill="#5C75CE"/>
</svg>
