<svg width="25.960938" height="22.500000" viewBox="0 0 25.9609 22.5" fill="none" xmlns="http://www.w3.org/2000/svg" xmlns:xlink="http://www.w3.org/1999/xlink">
	<desc>
			Created with Pixso.
	</desc>
	<defs/>
	<path id="Polygon 1" d="M17.83 11.85L4.64 10.48Q2.85 10.29 2.25 8.59L0.57 3.84Q-0.05 2.09 1.3 0.81Q2.64 -0.46 4.36 0.25L24.2 8.51Q25.95 9.25 25.96 11.15Q25.96 13.05 24.2 13.78L3.99 22.23Q2.2 22.98 0.84 21.58Q-0.51 20.18 0.3 18.41L2.16 14.37L3.45 14.96L1.6 19Q1.19 19.89 1.87 20.59Q2.54 21.29 3.44 20.92L23.65 12.46Q24.53 12.1 24.53 11.15Q24.53 10.2 23.65 9.83L3.81 1.57Q2.95 1.21 2.28 1.85Q1.6 2.49 1.91 3.36L3.6 8.11Q3.9 8.96 4.79 9.06L17.98 10.43L17.83 11.85ZM2.17 14.4L2.16 14.37C2.32 14.01 2.74 13.85 3.1 14.02C3.47 14.19 3.62 14.6 3.45 14.96L3.43 14.97L2.17 14.4ZM17.96 10.45L17.98 10.43C18.38 10.48 18.66 10.82 18.61 11.22C18.57 11.62 18.23 11.89 17.83 11.85L17.81 11.83L17.96 10.45Z" fill="#404B5A" fill-opacity="1.000000" fill-rule="evenodd"/>
</svg>
