<svg width="40" height="40" viewBox="0 0 40 40" fill="none" xmlns="http://www.w3.org/2000/svg">
<path d="M40 20C40 31.0457 31.0457 40 20 40C8.9543 40 0 31.0457 0 20C0 8.9543 8.9543 0 20 0C31.0457 0 40 8.9543 40 20ZM2.88591 20C2.88591 29.4519 10.5481 37.1141 20 37.1141C29.4519 37.1141 37.1141 29.4519 37.1141 20C37.1141 10.5481 29.4519 2.88591 20 2.88591C10.5481 2.88591 2.88591 10.5481 2.88591 20Z" fill="#9FA1AB"/>
<path d="M38.557 20C39.354 20 40.0054 19.3531 39.948 18.5583C39.7938 16.4254 39.2983 14.3278 38.4776 12.3463C37.4725 9.91982 35.9993 7.71504 34.1421 5.85786C32.285 4.00069 30.0802 2.5275 27.6537 1.52241C25.6722 0.70167 23.5746 0.206183 21.4417 0.05203C20.6469 -0.00541643 20 0.646032 20 1.44295C20 2.23988 20.6472 2.87959 21.4413 2.9467C23.1949 3.09491 24.9181 3.51297 26.5493 4.18864C28.6257 5.0487 30.5123 6.30932 32.1015 7.89851C33.6907 9.4877 34.9513 11.3743 35.8114 13.4507C36.487 15.0819 36.9051 16.8051 37.0533 18.5587C37.1204 19.3528 37.7601 20 38.557 20Z" fill="#0CA64A"/>
<path d="M38.557 20C39.354 20 40.0054 19.3531 39.948 18.5583C39.7938 16.4254 39.2983 14.3278 38.4776 12.3463C37.4725 9.91982 35.9993 7.71504 34.1421 5.85786C32.285 4.00069 30.0802 2.5275 27.6537 1.52241C25.6722 0.70167 23.5746 0.206183 21.4417 0.05203C20.6469 -0.00541643 20 0.646032 20 1.44295C20 2.23988 20.6472 2.87959 21.4413 2.9467C23.1949 3.09491 24.9181 3.51297 26.5493 4.18864C28.6257 5.0487 30.5123 6.30932 32.1015 7.89851C33.6907 9.4877 34.9513 11.3743 35.8114 13.4507C36.487 15.0819 36.9051 16.8051 37.0533 18.5587C37.1204 19.3528 37.7601 20 38.557 20Z" fill="#0CA64A"/>
<path d="M11 19.5L17.5 26L29.5 14" stroke="#0CA64A" stroke-width="3" stroke-linecap="round"/>
</svg>
