<svg width="40" height="40" viewBox="0 0 40 40" fill="none" xmlns="http://www.w3.org/2000/svg">
<path d="M40 20C40 31.0457 31.0457 40 20 40C8.9543 40 0 31.0457 0 20C0 8.9543 8.9543 0 20 0C31.0457 0 40 8.9543 40 20ZM2.88591 20C2.88591 29.4519 10.5481 37.1141 20 37.1141C29.4519 37.1141 37.1141 29.4519 37.1141 20C37.1141 10.5481 29.4519 2.88591 20 2.88591C10.5481 2.88591 2.88591 10.5481 2.88591 20Z" fill="#9FA1AB"/>
<path d="M1.84099 16.1771C1.06116 16.013 0.290412 16.5118 0.182877 17.3015C-0.308194 20.9074 0.193012 24.5891 1.64604 27.9456C3.29067 31.7446 6.07363 34.9397 9.61103 37.09C13.1484 39.2404 17.2659 40.2401 21.3956 39.9512C25.5252 39.6624 29.4635 38.0992 32.667 35.4773C35.8706 32.8554 38.1817 29.304 39.2814 25.313C40.3811 21.322 40.2153 17.0881 38.8068 13.1954C37.3984 9.30262 34.8167 5.94284 31.4178 3.5795C28.415 1.49149 24.9051 0.272186 21.2732 0.0405528C20.4779 -0.0101703 19.8365 0.646723 19.8432 1.44362C19.85 2.24051 20.5026 2.87473 21.2972 2.93513C24.331 3.16571 27.258 4.20202 29.7703 5.9489C32.6787 7.97122 34.8879 10.8462 36.0931 14.1773C37.2983 17.5083 37.4402 21.1313 36.4992 24.5464C35.5581 27.9615 33.5806 31.0004 30.8392 33.244C28.0979 35.4876 24.728 36.8252 21.1942 37.0724C17.6605 37.3196 14.1371 36.4641 11.1101 34.624C8.08314 32.7839 5.70175 30.0499 4.29443 26.7991C3.07879 23.991 2.64171 20.9168 3.01556 17.8973C3.11348 17.1064 2.62082 16.3413 1.84099 16.1771Z" fill="#0CA64A"/>
<path d="M22.0104 1.55218C22.0968 0.759946 21.5242 0.042237 20.7278 0.0132051C15.9413 -0.161285 11.2319 1.38899 7.47322 4.40898C3.71449 7.42898 1.18623 11.6938 0.325602 16.4056C0.18241 17.1895 0.759946 17.9032 1.55218 17.9896C2.34441 18.0759 3.05047 17.5017 3.2032 16.7196C3.9746 12.769 6.11893 9.19912 9.28078 6.6587C12.4426 4.11827 16.3906 2.79322 20.4146 2.89089C21.2113 2.91022 21.9241 2.34441 22.0104 1.55218Z" fill="#0CA64A"/>
<path d="M11 19.5L17.5 26L29.5 14" stroke="#0CA64A" stroke-width="3" stroke-linecap="round"/>
</svg>
