<svg width="40" height="40" viewBox="0 0 40 40" fill="none" xmlns="http://www.w3.org/2000/svg">
<path d="M40 20C40 31.0457 31.0457 40 20 40C8.9543 40 0 31.0457 0 20C0 8.9543 8.9543 0 20 0C31.0457 0 40 8.9543 40 20ZM2.88591 20C2.88591 29.4519 10.5481 37.1141 20 37.1141C29.4519 37.1141 37.1141 29.4519 37.1141 20C37.1141 10.5481 29.4519 2.88591 20 2.88591C10.5481 2.88591 2.88591 10.5481 2.88591 20Z" fill="#9FA1AB"/>
<path d="M17.9767 38.4464C17.8899 39.2386 18.4618 39.9567 19.2582 39.9862C21.4782 40.0686 23.6999 39.7807 25.8313 39.131C28.4236 38.3409 30.8282 37.0321 32.8992 35.2843C34.9703 33.5364 36.6645 31.3859 37.879 28.9633C39.0935 26.5407 39.8031 23.8966 39.9645 21.1914C40.1259 18.4862 39.7359 15.7764 38.8181 13.2265C37.9003 10.6767 36.4738 8.33996 34.6254 6.35822C32.7769 4.37648 30.545 2.79107 28.0651 1.69825C26.0261 0.799701 23.8544 0.249584 21.6404 0.067381C20.8461 0.00201976 20.1928 0.646993 20.1848 1.44387C20.1769 2.24076 20.8177 2.88689 21.6111 2.96191C23.4338 3.13426 25.2203 3.59829 26.9013 4.3391C29.0234 5.27424 30.9333 6.63088 32.515 8.32666C34.0967 10.0224 35.3174 12.022 36.1027 14.2039C36.8881 16.3858 37.2218 18.7046 37.0837 21.0195C36.9456 23.3343 36.3384 25.5969 35.2991 27.67C34.2599 29.743 32.8101 31.5832 31.0379 33.0788C29.2657 34.5745 27.2081 35.6944 24.9899 36.3705C23.2326 36.9061 21.4037 37.1544 19.5734 37.1088C18.7767 37.0889 18.0636 37.6542 17.9767 38.4464Z" fill="#0CA64A"/>
<path d="M1.44295 20C0.646032 20 -0.00542388 20.6469 0.0519939 21.4418C0.397092 26.2191 2.44844 30.7327 5.85786 34.1421C9.26729 37.5516 13.7809 39.6029 18.5582 39.948C19.3531 40.0054 20 39.354 20 38.557C20 37.7601 19.3527 37.1204 18.5586 37.0533C14.5477 36.7145 10.7665 34.9695 7.89851 32.1015C5.03049 29.2335 3.28553 25.4523 2.94667 21.4414C2.87958 20.6473 2.23988 20 1.44295 20Z" fill="#0CA64A"/>
<path d="M11 19.5L17.5 26L29.5 14" stroke="#0CA64A" stroke-width="3" stroke-linecap="round"/>
</svg>
