<svg width="40" height="40" viewBox="0 0 40 40" fill="none" xmlns="http://www.w3.org/2000/svg">
<path d="M40 20C40 31.0457 31.0457 40 20 40C8.9543 40 0 31.0457 0 20C0 8.9543 8.9543 0 20 0C31.0457 0 40 8.9543 40 20ZM2.88591 20C2.88591 29.4519 10.5481 37.1141 20 37.1141C29.4519 37.1141 37.1141 29.4519 37.1141 20C37.1141 10.5481 29.4519 2.88591 20 2.88591C10.5481 2.88591 2.88591 10.5481 2.88591 20Z" fill="#9FA1AB"/>
<path d="M38.3872 22.505C39.1768 22.6125 39.9096 22.0595 39.96 21.2642C40.1114 18.8735 39.8323 16.4709 39.132 14.1719C38.2912 11.412 36.8633 8.86661 34.9462 6.7105C33.0291 4.5544 30.6682 2.8386 28.0255 1.68086C25.8242 0.716463 23.4707 0.158314 21.0787 0.0291107C20.283 -0.0138719 19.648 0.649233 19.6625 1.44602C19.677 2.24281 20.3357 2.87065 21.1309 2.92331C23.1062 3.05413 25.0476 3.52694 26.8675 4.32423C29.1288 5.31491 31.1491 6.78313 32.7895 8.62812C34.43 10.4731 35.6519 12.6512 36.3713 15.0129C36.9503 16.9135 37.1929 18.8969 37.0918 20.8739C37.0511 21.6698 37.5976 22.3974 38.3872 22.505Z" fill="#0CA64A"/>
<path d="M20 38.557C20 39.354 20.6469 40.0054 21.4418 39.948C26.2191 39.6029 30.7327 37.5516 34.1421 34.1421C37.5516 30.7327 39.6029 26.2191 39.948 21.4418C40.0054 20.6469 39.354 20 38.557 20C37.7601 20 37.1204 20.6473 37.0533 21.4414C36.7145 25.4523 34.9695 29.2335 32.1015 32.1015C29.2335 34.9695 25.4523 36.7145 21.4414 37.0533C20.6473 37.1204 20 37.7601 20 38.557Z" fill="#0CA64A"/>
<path d="M11 19.5L17.5 26L29.5 14" stroke="#0CA64A" stroke-width="3" stroke-linecap="round"/>
</svg>
