<svg width="24" height="24" viewBox="0 0 24 24" fill="none" xmlns="http://www.w3.org/2000/svg">
<mask id="mask0_6783_38294" style="mask-type:alpha" maskUnits="userSpaceOnUse" x="0" y="0" width="24" height="24">
<rect width="24" height="24" fill="#D9D9D9"/>
</mask>
<g mask="url(#mask0_6783_38294)">
<path d="M3.7875 6.98672H7.725H12.45H17.175H21.1125V20.8992C21.1125 21.6241 20.5249 22.2117 19.8 22.2117H5.1C4.37513 22.2117 3.7875 21.6241 3.7875 20.8992V6.98672Z" stroke="#404B5A" stroke-width="1.575"/>
<path d="M5.835 3.7325C6.28117 3.13761 6.98139 2.7875 7.725 2.7875H17.175C17.9186 2.7875 18.6188 3.13761 19.065 3.7325L20.325 5.4125H4.575L5.835 3.7325Z" stroke="#404B5A" stroke-width="1.575"/>
<path d="M9 14.5L12.1464 17.6464C12.3417 17.8417 12.6583 17.8417 12.8536 17.6464L16 14.5" stroke="#5C75CE" stroke-width="1.5" stroke-linecap="round"/>
<path d="M11.6992 17.25C11.6992 17.6642 12.035 18 12.4492 18C12.8634 18 13.1992 17.6642 13.1992 17.25V10.75C13.1992 10.3358 12.8634 10 12.4492 10C12.035 10 11.6992 10.3358 11.6992 10.75V17.25Z" fill="#5C75CE"/>
</g>
</svg>
