<svg width="24" height="24" viewBox="0 0 24 24" fill="none" xmlns="http://www.w3.org/2000/svg">
<g clip-path="url(#clip0_6783_38282)">
<rect x="3.75" y="6.75" width="17.5" height="13.5" rx="4.25" stroke="#404B5A" stroke-width="1.5"/>
<path d="M5 9L7.21083 10.3818C8.39057 11.1191 9.71145 11.6016 11.0887 11.7984V11.7984C12.0248 11.9321 12.9752 11.9321 13.9113 11.7984V11.7984C15.2886 11.6016 16.6094 11.1191 17.7892 10.3818L20 9" stroke="#404B5A" stroke-width="1.5"/>
<rect x="9" y="10" width="1.5" height="4" rx="0.75" fill="#404B5A"/>
<path d="M14.5 10.75C14.5 10.3358 14.8358 10 15.25 10C15.6642 10 16 10.3358 16 10.75V13.25C16 13.6642 15.6642 14 15.25 14C14.8358 14 14.5 13.6642 14.5 13.25V10.75Z" fill="#404B5A"/>
<path d="M10 5V5C10.2217 1.89627 14.7783 1.89627 15 5V5" stroke="#606E80" stroke-width="1.5" stroke-linecap="round"/>
</g>
<defs>
<clipPath id="clip0_6783_38282">
<rect width="24" height="24" fill="white"/>
</clipPath>
</defs>
</svg>
