<svg width="24" height="24" viewBox="0 0 24 24" fill="none" xmlns="http://www.w3.org/2000/svg">
<path d="M12.0192 21.2438L12.0192 21.2438L12.0148 21.2462C12.0099 21.2488 12.0048 21.25 12 21.25C11.9952 21.25 11.9901 21.2488 11.9852 21.2461L11.9808 21.2438C11.7893 21.1416 9.18874 19.7133 6.64739 17.4703C4.06762 15.1934 1.7502 12.253 1.75 9.13728C1.75171 7.70714 2.31623 6.33724 3.31791 5.32773C4.31939 4.31843 5.67596 3.75172 7.08972 3.75C8.89615 3.75012 10.4423 4.52915 11.3986 5.81275L12 6.62003L12.6014 5.81275C13.5577 4.52915 15.1038 3.75012 16.9103 3.75C18.324 3.75172 19.6806 4.31843 20.6821 5.32773C21.6839 6.33734 22.2484 7.70742 22.25 9.1377C22.2496 12.2532 19.9323 15.1935 17.3526 17.4703C14.8113 19.7133 12.2107 21.1416 12.0192 21.2438Z" stroke="#404B5A" stroke-width="1.5"/>
</svg>
