<svg width="24" height="24" viewBox="0 0 24 24" fill="none" xmlns="http://www.w3.org/2000/svg">
<path fill-rule="evenodd" clip-rule="evenodd" d="M12 22C17.5228 22 22 17.5228 22 12C22 6.47715 17.5228 2 12 2C6.47715 2 2 6.47715 2 12C2 17.5228 6.47715 22 12 22ZM12 24C18.6274 24 24 18.6274 24 12C24 5.37258 18.6274 0 12 0C5.37258 0 0 5.37258 0 12C0 18.6274 5.37258 24 12 24ZM10.6666 10.6663C10.6666 9.92996 11.2636 9.33301 12 9.33301C12.7363 9.33301 13.3333 9.92996 13.3333 10.6663V17.333C13.3333 18.0694 12.7363 18.6663 12 18.6663C11.2636 18.6663 10.6666 18.0694 10.6666 17.333V10.6663ZM12.0833 8.16687C12.8657 8.16687 13.5 7.5326 13.5 6.75018C13.5 5.96777 12.8657 5.3335 12.0833 5.3335C11.3009 5.3335 10.6666 5.96777 10.6666 6.75018C10.6666 7.5326 11.3009 8.16687 12.0833 8.16687Z" fill="#606E80"/>
</svg>
