<svg width="24" height="24" viewBox="0 0 24 24" fill="none" xmlns="http://www.w3.org/2000/svg">
<path d="M16.9063 5.12824C17.488 5.86541 17.8962 6.72419 18.1004 7.64076C18.4798 9.34345 17.6332 11.0877 16.5342 12.8794L14.8639 15.6026L12 20.103L9.13678 15.6037L7.44216 12.819C6.35069 11.0254 5.51773 9.27581 5.91352 7.5797C6.12692 6.66521 6.54364 5.81057 7.13272 5.07927C7.72181 4.34797 8.46811 3.75881 9.31618 3.35557C10.1642 2.95233 11.0923 2.74537 12.0313 2.75008C12.9704 2.75478 13.8963 2.97103 14.7403 3.38275C15.5842 3.79447 16.3246 4.39107 16.9063 5.12824ZM12.2109 20.4345L12.2107 20.4341L12.2109 20.4345Z" stroke="#404B5A" stroke-width="1.5" stroke-linejoin="round"/>
<circle cx="12" cy="9" r="2.25" stroke="#5C75CE" stroke-width="1.5"/>
</svg>
