<svg width="24" height="24" viewBox="0 0 24 24" fill="none" xmlns="http://www.w3.org/2000/svg">
<mask id="mask0_6783_38494" style="mask-type:alpha" maskUnits="userSpaceOnUse" x="0" y="0" width="24" height="24">
<rect width="24" height="24" fill="#D9D9D9"/>
</mask>
<g mask="url(#mask0_6783_38494)">
<path d="M8.75 4C8.75 3.86193 8.86193 3.75 9 3.75H14C14.1381 3.75 14.25 3.86193 14.25 4V4.25H8.75V4Z" fill="#606E80" stroke="#606E80" stroke-linejoin="round"/>
<rect x="3.5" y="5.5" width="16" height="1" rx="0.5" fill="#404B5A" stroke="#404B5A" stroke-linejoin="round"/>
<path d="M5 7V19C5 20.1046 5.89543 21 7 21H16C17.1046 21 18 20.1046 18 19V7" stroke="#404B5A" stroke-width="1.5" stroke-linecap="round" stroke-linejoin="round"/>
<path d="M9.5 12L11.7323 10.2142C11.8888 10.089 12.1112 10.089 12.2677 10.2142L14.5 12" stroke="#5C75CE" stroke-width="1.5" stroke-linecap="round"/>
<path d="M11.1992 17.25C11.1992 17.6642 11.535 18 11.9492 18C12.3634 18 12.6992 17.6642 12.6992 17.25V10.75C12.6992 10.3358 12.3634 10 11.9492 10C11.535 10 11.1992 10.3358 11.1992 10.75V17.25Z" fill="#5C75CE"/>
</g>
</svg>
