<svg width="20" height="18" viewBox="0 0 20 18" fill="none" xmlns="http://www.w3.org/2000/svg">
<path d="M7.71434 4.42822H19.1431M0.857056 13.5713H12.2859" stroke="#404B5A" stroke-width="1.5" stroke-linecap="round"/>
<path d="M0.857073 4.42815C0.857073 6.32174 2.39213 7.85679 4.28571 7.85679C6.1793 7.85679 7.71436 6.32174 7.71436 4.42815C7.71436 2.53457 6.1793 0.999512 4.28571 0.999512C2.39213 0.999512 0.857073 2.53457 0.857073 4.42815Z" stroke="#404B5A" stroke-width="1.5" stroke-linecap="round"/>
<path d="M12.2859 13.5712C12.2859 15.4648 13.821 16.9999 15.7145 16.9999C17.6081 16.9999 19.1432 15.4648 19.1432 13.5712C19.1432 11.6776 17.6081 10.1426 15.7145 10.1426C13.821 10.1426 12.2859 11.6776 12.2859 13.5712Z" stroke="#404B5A" stroke-width="1.5" stroke-linecap="round"/>
</svg>
