<svg width="32.000000" height="32.000000" viewBox="0 0 32 32" fill="none" xmlns="http://www.w3.org/2000/svg" xmlns:xlink="http://www.w3.org/1999/xlink">
	<desc>
			Created with Pixso.
	</desc>
	<defs>
		<clipPath id="clip63_89895">
			<rect id="Control" rx="5.500000" width="31.000000" height="31.000000" transform="translate(0.500000 0.500000)" fill="white" fill-opacity="0"/>
		</clipPath>
	</defs>
	<g clip-path="url(#clip63_89895)">
		<path id="Union" d="M10.2212 10.2266C10.5181 9.92188 10.9849 9.92188 11.2817 10.2266L16.0024 14.9453L20.7227 10.2266C21.0195 9.92969 21.4863 9.92969 21.7832 10.2266C22.0801 10.5234 22.0801 10.9844 21.7832 11.2812L17.063 16.0078L21.7847 20.7266C22.0815 21.0234 22.0815 21.4922 21.7847 21.7891C21.4873 22.0859 21.021 22.0859 20.7236 21.7891L16.0024 17.0625L11.2803 21.7891C10.9834 22.0859 10.5166 22.0859 10.2197 21.7891C9.92285 21.4922 9.92285 21.0234 10.2197 20.7266L14.9414 16.0078L10.2212 11.2812C9.92383 10.9844 9.92383 10.5234 10.2212 10.2266Z" clip-rule="evenodd" fill="#404B5A" fill-opacity="1.000000" fill-rule="evenodd"/>
	</g>
</svg>
